<svg width="65" height="22" viewBox="0 0 65 22" fill="none" xmlns="http://www.w3.org/2000/svg">
<g clip-path="url(#clip0_2001_2469)">
<path d="M62.3934 13.3342L64.1689 14.5178C63.5927 15.3666 62.2144 16.8228 59.8316 16.8228C56.8726 16.8228 54.6689 14.5334 54.6689 11.6211C54.6689 8.52193 56.8959 6.41943 59.5824 6.41943C62.2844 6.41943 63.6082 8.56856 64.0366 9.72881L64.2702 10.3207L57.3087 13.2018C57.8382 14.2453 58.6637 14.7748 59.8316 14.7748C60.9997 14.7748 61.8094 14.1986 62.3934 13.3342ZM56.9349 11.4577L61.5837 9.52643C61.3267 8.88018 60.5637 8.42081 59.6524 8.42081C58.4923 8.42081 56.8804 9.44868 56.9349 11.4577Z" fill="#FF302F"/>
<path d="M51.3125 1.11621H53.555V16.3475H51.3125V1.11621Z" fill="#20B15A"/>
<path d="M47.7772 6.82425H49.942V16.0751C49.942 19.914 47.676 21.4947 44.9972 21.4947C42.4744 21.4947 40.956 19.7972 40.3875 18.419L42.3731 17.5935C42.7312 18.4422 43.5956 19.4469 44.9972 19.4469C46.7181 19.4469 47.7772 18.38 47.7772 16.3866V15.6391H47.6994C47.1854 16.262 46.2042 16.8226 44.9584 16.8226C42.3575 16.8226 39.9746 14.5566 39.9746 11.6366C39.9746 8.70087 42.3575 6.41162 44.9584 6.41162C46.1965 6.41162 47.1854 6.9645 47.6994 7.57187H47.7772V6.82425ZM47.9329 11.6366C47.9329 9.79887 46.7104 8.4595 45.153 8.4595C43.58 8.4595 42.2562 9.79887 42.2562 11.6366C42.2562 13.4509 43.58 14.7669 45.153 14.7669C46.7105 14.7747 47.933 13.4509 47.933 11.6366" fill="#3686F7"/>
<path d="M27.6635 11.5976C27.6635 14.5956 25.3275 16.7992 22.4619 16.7992C19.5964 16.7992 17.2603 14.5878 17.2603 11.5976C17.2603 8.58406 19.5964 6.38818 22.4619 6.38818C25.3275 6.38818 27.6635 8.58406 27.6635 11.5976ZM25.3898 11.5976C25.3898 9.72881 24.0348 8.44381 22.4619 8.44381C20.889 8.44381 19.534 9.72881 19.534 11.5976C19.534 13.4508 20.889 14.7513 22.4619 14.7513C24.0349 14.7513 25.3898 13.4508 25.3898 11.5976Z" fill="#FF302F"/>
<path d="M39.0248 11.6211C39.0248 14.6191 36.6887 16.8227 33.8232 16.8227C30.9576 16.8227 28.6216 14.6189 28.6216 11.6211C28.6216 8.60756 30.9576 6.41943 33.8232 6.41943C36.6887 6.41943 39.0248 8.59981 39.0248 11.6211ZM36.7432 11.6211C36.7432 9.75231 35.3883 8.46731 33.8153 8.46731C32.2423 8.46731 30.8875 9.75231 30.8875 11.6211C30.8875 13.4743 32.2425 14.7748 33.8153 14.7748C35.3961 14.7748 36.7432 13.4666 36.7432 11.6211Z" fill="#FFBA40"/>
<path d="M8.71024 14.541C5.44749 14.541 2.89349 11.909 2.89349 8.64623C2.89349 5.3836 5.44749 2.7516 8.71024 2.7516C10.4701 2.7516 11.7549 3.4446 12.7049 4.33235L14.2701 2.76723C12.9464 1.49798 11.1787 0.532227 8.71024 0.532227C4.24062 0.532352 0.479492 4.17673 0.479492 8.64623C0.479492 13.1157 4.24062 16.7602 8.71024 16.7602C11.1242 16.7602 12.9464 15.966 14.3714 14.4865C15.8352 13.0225 16.2869 10.9667 16.2869 9.30035C16.2869 8.7786 16.2246 8.24135 16.1545 7.84423H8.71024V10.009H14.0131C13.8574 11.364 13.4291 12.2906 12.7984 12.9212C12.0352 13.6922 10.8284 14.541 8.71024 14.541Z" fill="#3686F7"/>
</g>
<defs>
<clipPath id="clip0_2001_2469">
<rect width="64" height="21" fill="white" transform="translate(0.386719 0.5)"/>
</clipPath>
</defs>
</svg>
