<svg width="108" height="33" viewBox="0 0 108 33" fill="none" xmlns="http://www.w3.org/2000/svg">
<path d="M19.2423 9.87957C19.1149 8.65329 18.5682 7.70063 17.6022 7.02162C16.6361 6.3426 15.3251 6.00309 13.669 6.00309C12.5437 6.00309 11.5936 6.15511 10.8186 6.45915C10.0437 6.75305 9.44918 7.1635 9.03516 7.6905C8.63176 8.2175 8.43005 8.81544 8.43005 9.48432C8.40882 10.0417 8.53091 10.5282 8.7963 10.9437C9.07231 11.3592 9.44918 11.719 9.92689 12.023C10.4046 12.3169 10.9566 12.5754 11.583 12.7983C12.2093 13.0112 12.8781 13.1936 13.5894 13.3456L16.5193 14.0145C17.9419 14.3185 19.2476 14.7239 20.4366 15.2306C21.6256 15.7374 22.6553 16.3606 23.5258 17.1005C24.3963 17.8403 25.0704 18.7119 25.5481 19.7152C26.0365 20.7185 26.2859 21.8688 26.2966 23.166C26.2859 25.0713 25.7764 26.7233 24.7679 28.1219C23.77 29.5103 22.3262 30.5896 20.4366 31.3599C18.5576 32.12 16.2911 32.5 13.6371 32.5C11.0044 32.5 8.71138 32.1149 6.75806 31.3447C4.81535 30.5744 3.29728 29.4343 2.20385 27.9242C1.12103 26.404 0.553079 24.5241 0.5 22.2843H7.17207C7.24639 23.3282 7.55955 24.1998 8.11158 24.899C8.67422 25.5882 9.42264 26.1101 10.3568 26.4648C11.3016 26.8094 12.3685 26.9817 13.5575 26.9817C14.7253 26.9817 15.7391 26.8196 16.599 26.4952C17.4695 26.1709 18.1436 25.72 18.6213 25.1423C19.099 24.5646 19.3379 23.9008 19.3379 23.1508C19.3379 22.4515 19.1202 21.8637 18.685 21.3874C18.2604 20.9111 17.634 20.5057 16.806 20.1713C15.9886 19.8368 14.9854 19.5328 13.7964 19.2591L10.2454 18.4078C7.49586 17.7694 5.32491 16.7711 3.73253 15.4131C2.14015 14.055 1.34927 12.2257 1.35989 9.92518C1.34927 8.04014 1.87476 6.39327 2.93634 4.98456C4.00854 3.57585 5.47884 2.47625 7.34724 1.68575C9.21563 0.89525 11.3388 0.5 13.7168 0.5C16.1372 0.5 18.2497 0.89525 20.0544 1.68575C21.8697 2.47625 23.2817 3.57585 24.2902 4.98456C25.2987 6.39327 25.8188 8.02494 25.8507 9.87957H19.2423Z" fill="#0056B3"/>
<path d="M46.6605 0.925653L36.9111 32.0591H30.0161V2.18741L46.6605 0.925653Z" fill="#0056B3"/>
<path d="M50.3972 32.0591L46.6605 0.925653H63.2637C65.7266 0.925653 67.8285 1.34624 69.5695 2.18741C71.3211 3.01845 72.6534 4.19913 73.5664 5.72945C74.49 7.24964 74.9518 9.0384 74.9518 11.0957C74.9518 13.1632 74.4846 14.9418 73.5505 16.4316C72.6163 17.9112 71.2627 19.0463 69.4899 19.8368C67.7276 20.6273 65.5939 21.0226 63.0885 21.0226H54.4737V15.7323H61.9738C63.2902 15.7323 64.3836 15.56 65.2542 15.2154C66.1246 14.8709 66.7722 14.354 67.1969 13.6648C67.6321 12.9757 67.8497 12.1193 67.8497 11.0957C67.8497 10.062 67.6321 9.19042 67.1969 8.481C66.7722 7.77158 66.1193 7.23444 65.2382 6.8696C64.3677 6.49462 63.269 6.30713 61.942 6.30713H57.2922V32.0591H50.3972ZM68.009 17.891L76.1142 32.0591H68.5026L60.5726 17.891H68.009Z" fill="#0056B3"/>
<path d="M83.5028 32.0591H76.1142L87.3723 0.925653H96.2578L107.5 32.0591H100.111L91.9425 8.04014H91.6877L83.5028 32.0591ZM83.041 19.8216H100.494V24.9599H83.041V19.8216Z" fill="#0056B3"/>
</svg>
